<svg width="31" height="30" viewBox="0 0 31 30" fill="none" xmlns="http://www.w3.org/2000/svg">
<g clip-path="url(#clip0_4_124)">
<path d="M0 10.6644C0.101793 10.0722 0.162869 9.47041 0.311895 8.89118C1.36077 4.81556 3.86815 1.99603 7.89183 0.654431C11.8667 -0.671032 15.5711 0.0356669 18.8546 2.61237C21.1567 4.41946 22.5248 6.81868 22.98 9.70114C23.4328 12.5675 22.8432 15.2313 21.287 17.7233C22.226 18.626 23.1706 19.5344 24.1104 20.4388C25.0167 20.0451 25.4882 20.1306 26.2049 20.8179C27.6935 22.2458 29.1813 23.6746 30.6667 25.1049C31.3971 25.8084 31.4102 26.6676 30.7041 27.3912C30.0331 28.0785 29.3629 28.7659 28.6878 29.4484C27.9695 30.1736 27.1145 30.1849 26.3824 29.4822C24.8653 28.0261 23.3522 26.5651 21.8302 25.1138C21.2781 24.5878 21.1225 23.9916 21.4075 23.2801C21.4352 23.2115 21.4116 23.0792 21.3595 23.0292C20.4922 22.1829 19.6168 21.3447 18.7845 20.5453C18.0125 20.9898 17.2951 21.4706 16.5223 21.836C9.7518 25.0363 1.75003 21.0833 0.241861 13.805C0.142511 13.325 0.079806 12.8385 0 12.3545C0 11.7906 0 11.2275 0 10.6636V10.6644ZM11.5971 21.9635C17.4742 21.9401 22.1486 17.2707 22.1339 11.438C22.1193 5.67635 17.3529 0.970671 11.5474 1.00859C5.7159 1.0465 0.995946 5.63117 0.989431 11.5034C0.982916 17.3296 5.7387 21.9861 11.5971 21.9635ZM24.9524 21.1317C24.7969 21.2342 24.6372 21.3052 24.5224 21.4206C23.8302 22.1135 23.1462 22.8146 22.4629 23.5165C22.1673 23.8206 22.173 24.0723 22.4857 24.3732C24.0208 25.8511 25.5575 27.3275 27.0966 28.8022C27.406 29.099 27.6536 29.0918 27.9598 28.7812C28.6479 28.0842 29.3336 27.3847 30.016 26.6821C30.3051 26.3844 30.3092 26.1295 30.0152 25.8455C28.4663 24.3522 26.915 22.8622 25.3588 21.3762C25.2553 21.277 25.1079 21.2229 24.9516 21.1309L24.9524 21.1317ZM19.5003 19.866C20.3831 20.7139 21.2618 21.5577 22.0957 22.3588C22.5501 21.9514 22.9849 21.5601 23.4353 21.1559C22.5102 20.2677 21.616 19.4086 20.7186 18.547C20.3057 18.9931 19.9108 19.4207 19.5003 19.8652V19.866Z" fill="#5D40AF" fill-opacity="0.67"/>
<path d="M11.5971 21.9625C5.73947 21.9859 0.982872 17.3286 0.989387 11.5024C0.995901 5.631 5.71585 1.04633 11.5466 1.00842C17.3529 0.970501 22.1192 5.67618 22.1331 11.4379C22.1477 17.2706 17.4734 21.9399 11.5962 21.9633L11.5971 21.9625ZM11.5686 2.17334C6.3315 2.20238 2.14087 6.33125 2.15879 11.5266C2.17752 16.843 6.59453 20.9549 11.8487 20.8081C16.861 20.6685 21.116 16.5364 20.9637 11.2047C20.8252 6.36513 16.8797 2.22336 11.5677 2.17334H11.5686Z" fill="#5D40AF"/>
<path d="M24.9524 21.1316C25.108 21.2235 25.2554 21.2776 25.3596 21.3768C26.9158 22.8628 28.4672 24.3529 30.016 25.8461C30.31 26.1301 30.3068 26.3842 30.0169 26.6827C29.3344 27.3854 28.6488 28.0848 27.9606 28.7818C27.6544 29.0924 27.4069 29.0989 27.0974 28.8028C25.5583 27.3289 24.0216 25.8518 22.4866 24.3738C22.1739 24.0729 22.1682 23.8212 22.4638 23.5171C23.147 22.8152 23.8303 22.1142 24.5233 21.4212C24.6381 21.3066 24.7977 21.2348 24.9532 21.1324L24.9524 21.1316Z" fill="#5D40AF"/>
<path d="M19.5004 19.8658C19.9108 19.4213 20.3058 18.9937 20.7186 18.5476C21.616 19.4092 22.5102 20.2676 23.4353 21.1566C22.985 21.5608 22.5501 21.952 22.0957 22.3594C21.2618 21.5583 20.3831 20.7145 19.5004 19.8666V19.8658Z" fill="#5D40AF"/>
<path d="M11.5686 2.17334C16.8806 2.22336 20.8261 6.36513 20.9645 11.2047C21.1168 16.5364 16.8618 20.6685 11.8495 20.8081C6.59454 20.9549 2.17834 16.843 2.15961 11.5266C2.14088 6.33124 6.33232 2.20238 11.5694 2.17334H11.5686ZM11.571 3.16643C6.94227 3.15917 3.17103 6.87256 3.1637 11.4451C3.15637 16.0855 6.89503 19.8166 11.5686 19.8327C16.1745 19.8489 19.9767 16.0903 19.9914 11.5072C20.006 6.91048 16.234 3.17369 11.5718 3.16643H11.571Z" fill="#5D40AF" fill-opacity="0.67"/>
<path d="M17.3716 11.4863C17.3716 12.4624 17.3651 13.4378 17.3757 14.4131C17.3789 14.6987 17.2698 14.8818 17.023 15.023C15.3178 15.9927 13.615 16.9672 11.9147 17.9458C11.6679 18.0878 11.4488 18.0805 11.2029 17.9393C9.51152 16.9648 7.81768 15.9951 6.11976 15.0327C5.84777 14.8786 5.74028 14.6713 5.74109 14.3703C5.74598 12.4487 5.74598 10.5279 5.74109 8.60623C5.74028 8.30048 5.86243 8.10122 6.13035 7.94955C7.81116 6.9968 9.48872 6.04001 11.1614 5.07355C11.4383 4.91381 11.6736 4.9009 11.9529 5.06225C13.6248 6.02872 15.3007 6.98954 16.9815 7.94148C17.26 8.0996 17.383 8.29645 17.3773 8.61914C17.3618 9.57431 17.3716 10.5303 17.3716 11.4863ZM6.75088 9.30809C6.75088 9.45572 6.75088 9.54527 6.75088 9.63562C6.75088 11.0837 6.75577 12.5318 6.74518 13.9807C6.74355 14.1912 6.81522 14.3026 6.99356 14.4034C8.27045 15.1246 9.54083 15.8555 10.8145 16.5816C10.8861 16.6219 10.9643 16.651 11.0466 16.6881C11.0588 16.6316 11.0669 16.6123 11.0669 16.5929C11.0685 15.3053 11.0229 14.0162 11.0889 12.7319C11.1256 12.0211 10.922 11.6202 10.2615 11.291C9.0791 10.7013 7.9553 9.99704 6.75007 9.3089L6.75088 9.30809ZM16.3936 9.32342C16.3146 9.3573 16.2779 9.3694 16.2453 9.38796C14.9009 10.1552 13.5556 10.9191 12.2176 11.6968C12.1337 11.746 12.071 11.9025 12.0702 12.0098C12.0604 13.5088 12.0637 15.0085 12.0645 16.5074C12.0645 16.563 12.071 16.6187 12.0743 16.6663C12.1077 16.6752 12.1199 16.6832 12.1264 16.6792C13.5067 15.8943 14.8878 15.1101 16.2641 14.3171C16.3317 14.2784 16.3887 14.159 16.3887 14.0767C16.396 12.5076 16.3944 10.9377 16.3944 9.32261L16.3936 9.32342ZM15.8667 8.46747C15.8129 8.42068 15.7926 8.39729 15.7673 8.38196C14.4253 7.61314 13.0849 6.84191 11.7363 6.086C11.6418 6.03275 11.4594 6.04808 11.3593 6.10374C10.4667 6.59908 9.58399 7.11136 8.69799 7.61879C8.22078 7.89227 7.74357 8.16576 7.24112 8.45457C8.51557 9.18305 9.76478 9.87119 10.983 10.6085C11.4041 10.8635 11.7094 10.882 12.1427 10.6158C13.356 9.87119 14.6077 9.18789 15.8675 8.46667L15.8667 8.46747Z" fill="#5D40AF" fill-opacity="0.67"/>
<path d="M6.75089 9.30809C7.95612 9.99704 9.07992 10.7013 10.2623 11.2902C10.9228 11.6194 11.1256 12.0203 11.0897 12.7311C11.0246 14.0154 11.0694 15.3045 11.0677 16.5921C11.0677 16.6115 11.0596 16.6308 11.0474 16.6873C10.9651 16.6502 10.887 16.6211 10.8153 16.5808C9.54165 15.8547 8.27127 15.1238 6.99437 14.4026C6.81603 14.3018 6.74437 14.1904 6.746 13.9799C6.75659 12.5318 6.7517 11.0837 6.7517 9.63482C6.7517 9.54527 6.7517 9.45572 6.7517 9.30729L6.75089 9.30809Z" fill="#5D40AF"/>
<path d="M16.3936 9.32342C16.3936 10.9385 16.3952 12.5076 16.3879 14.0775C16.3879 14.1598 16.3309 14.2792 16.2633 14.3179C14.8878 15.1109 13.5067 15.8951 12.1256 16.68C12.1199 16.6832 12.1068 16.676 12.0735 16.6671C12.0702 16.6195 12.0637 16.5639 12.0637 16.5082C12.0637 15.0093 12.0604 13.5096 12.0694 12.0106C12.0694 11.9034 12.1329 11.7468 12.2168 11.6976C13.5548 10.9199 14.9001 10.1552 16.2445 9.38876C16.2771 9.37021 16.3138 9.35811 16.3928 9.32422L16.3936 9.32342Z" fill="#5D40AF"/>
<path d="M15.8667 8.46748C14.6061 9.1887 13.3545 9.872 12.1419 10.6166C11.7079 10.8828 11.4033 10.8643 10.9823 10.6094C9.76402 9.872 8.51562 9.18386 7.24036 8.45538C7.74362 8.16656 8.22002 7.89308 8.69722 7.6196C9.58323 7.11216 10.466 6.59989 11.3585 6.10455C11.4587 6.04889 11.6411 6.03356 11.7355 6.08681C13.0841 6.84352 14.4245 7.61476 15.7666 8.38277C15.7918 8.39729 15.8122 8.42149 15.8659 8.46828L15.8667 8.46748Z" fill="#5D40AF"/>
</g>
<defs>
<clipPath id="clip0_4_124">
<rect width="31.2245" height="30" fill="white"/>
</clipPath>
</defs>
</svg>
