<svg width="36" height="30" viewBox="0 0 36 30" fill="none" xmlns="http://www.w3.org/2000/svg">
<g clip-path="url(#clip0_2_71)">
<path d="M6.34063 2.43453C7.10884 2.29439 7.83818 2.25961 8.49489 2.0223C10.5018 1.29705 12.5323 0.681258 14.661 0.480767C16.5248 0.304826 18.3599 0.402003 20.0211 1.42696C20.0968 1.47402 20.1847 1.50061 20.2584 1.54971C21.0031 2.04071 21.7549 2.16039 22.6837 2.02843C26.4777 1.49141 30.24 4.29623 30.9397 8.06771C31.712 12.2299 29.2171 16.0505 25.0937 17.0192C21.0491 17.9695 16.7897 15.2066 16.0194 11.1262C15.9304 10.6547 15.8844 10.1739 15.8097 9.63175C14.9935 9.69312 14.17 9.74325 13.3496 9.81997C12.9067 9.86191 12.4617 9.92226 12.0301 10.0256C11.489 10.1555 10.9407 10.2926 10.4292 10.5053C9.3214 10.9677 8.18188 11.2398 6.97995 11.2439C6.80094 11.2439 6.62296 11.248 6.44395 11.2531C6.42144 11.2531 6.39996 11.2735 6.33859 11.3042C6.33859 11.7921 6.34166 12.2995 6.33859 12.8069C6.3345 13.4472 6.12991 13.6549 5.48855 13.6559C4.04624 13.659 2.60495 13.659 1.16265 13.6559C0.498775 13.6559 0.316696 13.4728 0.316696 12.8212C0.316696 8.82569 0.316696 4.83019 0.316696 0.834695C0.316696 0.21481 0.521279 0.0030665 1.134 0.00204359C2.58859 -0.00102515 4.04317 -2.2403e-06 5.49775 0.00204359C6.10945 0.00204359 6.33245 0.222993 6.33859 0.828558C6.3437 1.32365 6.33961 1.81976 6.33961 2.43453H6.34063ZM17.1191 9.62868C17.1007 12.3343 19.0063 15.1094 22.1406 15.805C25.063 16.4546 28.1379 14.8752 29.3378 12.0591C30.5407 9.23588 29.5239 5.91244 26.9605 4.24202C24.349 2.53989 21.1095 3.09124 19.305 4.80462C19.347 4.83429 19.3838 4.866 19.4257 4.8885C20.5694 5.49713 21.0859 6.56812 20.8036 7.74857C20.5264 8.90753 19.5853 9.61334 18.2944 9.62663C17.9026 9.63073 17.5098 9.62663 17.1201 9.62663L17.1191 9.62868ZM19.8768 2.78641C18.8703 2.09902 17.7349 1.71031 16.4849 1.66837C14.2222 1.59165 12.0597 2.1072 9.94947 2.84677C8.87439 3.2232 7.80749 3.57917 6.65671 3.58531C6.36927 3.58735 6.33654 3.73875 6.33756 3.97606C6.34472 5.87663 6.34063 7.77823 6.34268 9.6788C6.34268 9.77803 6.35802 9.87623 6.37337 10.0716C7.09759 9.98875 7.81567 9.97647 8.49693 9.81076C9.26923 9.62254 9.99039 9.2011 10.7668 9.04971C12.1866 8.77455 13.6258 8.57099 15.0661 8.43801C16.1933 8.33367 17.3349 8.39709 18.4683 8.35515C19.2232 8.32753 19.6385 7.83756 19.617 7.07651C19.5976 6.39218 19.1168 5.93903 18.3946 5.94722C17.1958 5.96051 15.998 5.98506 14.7991 6.00552C14.4165 6.01166 14.0329 6.03416 13.6514 6.0178C13.3016 6.00245 13.0407 5.71911 13.0366 5.402C13.0325 5.09308 13.2586 4.84042 13.6013 4.78416C13.7261 4.76371 13.855 4.76064 13.9818 4.75859C14.8359 4.74836 15.6911 4.71563 16.5452 4.7412C17.2214 4.76166 17.7645 4.64096 18.2535 4.0804C18.7015 3.5669 19.3296 3.20888 19.8758 2.78539L19.8768 2.78641ZM1.56567 1.2858V12.3783H5.0446V1.2858H1.56567Z" fill="#f59e0b"/>
<path d="M29.9761 27.5665C29.2181 27.7025 28.4898 27.7332 27.8341 27.9695C25.8149 28.6958 23.7752 29.3228 21.6311 29.5203C19.7521 29.6931 17.9507 29.4967 16.2302 28.5608C13.3445 26.9916 10.3985 25.5329 7.47709 24.0293C6.63217 23.5945 6.11355 22.9266 6.05525 21.9609C5.93863 20.0399 7.84125 18.7469 9.57407 19.5847C10.8803 20.2158 12.1641 20.8961 13.457 21.5538C14.1148 21.8883 14.7725 22.2218 15.4343 22.5583C15.8118 21.0035 16.6127 20.3928 18.2105 20.3611C19.6508 20.3335 21.0931 20.3069 22.5293 20.2056C23.7854 20.1166 25.0231 19.9151 26.1954 19.3791C27.2377 18.9034 28.3609 18.7265 29.5106 18.752C29.6487 18.7551 29.7868 18.752 29.975 18.752C29.975 18.215 29.973 17.7097 29.975 17.2044C29.9781 16.5395 30.1776 16.341 30.8486 16.34C32.2909 16.338 33.7322 16.3369 35.1745 16.34C35.8087 16.341 35.998 16.5344 35.998 17.1594C35.998 21.1682 35.998 25.177 35.998 29.1858C35.998 29.775 35.7852 29.9939 35.194 29.9949C33.7261 29.998 32.2592 29.998 30.7913 29.9949C30.2093 29.9939 29.9822 29.7658 29.975 29.1827C29.9689 28.6856 29.974 28.1884 29.974 27.5644L29.9761 27.5665ZM29.9433 19.9274C29.2181 20.0092 28.499 20.0194 27.8177 20.1851C27.0444 20.3734 26.3181 20.7447 25.5499 20.9595C24.1097 21.3625 22.6264 21.5231 21.135 21.5743C20.0896 21.6101 19.0432 21.606 17.9978 21.6305C17.7973 21.6356 17.5855 21.6581 17.4014 21.7308C16.8685 21.9394 16.5933 22.5194 16.713 23.1178C16.8235 23.6712 17.2756 24.0559 17.8566 24.0497C19.4002 24.0323 20.9437 23.9986 22.4863 23.9761C22.9538 23.9689 23.2545 24.2062 23.276 24.5745C23.2975 24.9417 23.009 25.2015 22.5415 25.2342C22.4781 25.2383 22.4137 25.2383 22.3503 25.2394C20.909 25.2639 19.4677 25.2946 18.0264 25.311C17.16 25.3212 16.4337 25.0194 15.9049 24.3034C15.8323 24.2052 15.732 24.1111 15.6236 24.0559C13.4141 22.9235 11.2046 21.7911 8.98896 20.6721C8.47546 20.4122 7.89342 20.5534 7.53029 20.9748C6.99019 21.6019 7.21523 22.4898 8.02538 22.9092C11.0338 24.463 14.0493 26.0025 17.0475 27.5757C17.9742 28.0616 18.9429 28.302 19.974 28.3316C22.027 28.3889 23.9951 27.9327 25.9264 27.3005C27.159 26.8965 28.3609 26.3871 29.6917 26.4055C29.9679 26.4096 29.9791 26.2357 29.9781 26.0239C29.974 24.1223 29.9761 22.2207 29.974 20.3181C29.974 20.2199 29.9587 20.1207 29.9423 19.9274H29.9433ZM31.2609 17.6105V28.7122H34.75V17.6105H31.2609Z" fill="#f59e0b"/>
<path d="M1.56567 1.2858H5.0446V12.3783H1.56567V1.2858ZM3.93372 9.67063C3.93372 9.67063 3.93372 9.67063 3.9327 9.67063C3.9327 9.21134 3.94292 8.75307 3.92963 8.29378C3.91837 7.89587 3.67594 7.65139 3.32508 7.6473C2.96093 7.64321 2.70111 7.9061 2.69804 8.31629C2.68986 9.20827 2.69088 10.1002 2.69804 10.9933C2.70111 11.3932 2.96707 11.6817 3.31179 11.6878C3.66265 11.6939 3.92144 11.4219 3.93167 11.0086C3.94292 10.5626 3.93372 10.1166 3.93372 9.67063Z" fill="white"/>
<path d="M31.2598 17.6105H34.749V28.7122H31.2598V17.6105ZM33.6207 20.3478C33.6207 19.9018 33.6268 19.4558 33.6187 19.0098C33.6115 18.6078 33.3537 18.3214 33.008 18.3112C32.6561 18.302 32.3891 18.573 32.384 18.9853C32.3738 19.8772 32.3748 20.7692 32.384 21.6622C32.3881 22.0929 32.6213 22.3455 32.9845 22.3517C33.3599 22.3578 33.6115 22.0857 33.6187 21.6479C33.6258 21.2142 33.6197 20.7815 33.6197 20.3478H33.6207Z" fill="white"/>
<path d="M22.8423 5.61068C22.8423 5.40303 22.8361 5.18719 22.8433 4.97238C22.8586 4.54992 23.0919 4.28805 23.4499 4.2768C23.8202 4.26555 24.1127 4.51002 24.0872 4.92737C24.0565 5.42144 24.2068 5.68433 24.6702 5.9063C25.0006 6.06383 25.2594 6.41878 25.4875 6.73179C25.7248 7.05708 25.6154 7.44579 25.3075 7.62889C25.0047 7.80892 24.6753 7.72913 24.4534 7.3885C24.2314 7.04685 23.9603 6.81158 23.5338 6.80033C22.9057 6.78498 22.4167 7.2187 22.3809 7.82529C22.3462 8.41142 22.8198 8.91264 23.4437 8.95254C24.5485 9.02209 25.374 9.64607 25.6624 10.6311C25.9847 11.7287 25.4722 12.9133 24.4309 13.3807C24.1516 13.5055 24.0749 13.6559 24.1015 13.927C24.1148 14.0651 24.1035 14.2083 24.0831 14.3464C24.0329 14.6849 23.8151 14.864 23.4888 14.8926C23.188 14.9192 22.8341 14.6583 22.8709 14.3433C22.9435 13.7183 22.6326 13.4513 22.1426 13.168C21.8163 12.9787 21.578 12.5931 21.3703 12.2525C21.1698 11.9241 21.312 11.5651 21.6209 11.4055C21.937 11.2428 22.2469 11.3492 22.4607 11.6939C22.8259 12.2821 23.2361 12.4785 23.7823 12.3251C24.2467 12.1941 24.5689 11.7523 24.5557 11.2643C24.5424 10.7682 24.212 10.3457 23.7322 10.2455C23.4591 10.1882 23.1727 10.1892 22.9026 10.1207C21.9298 9.87316 21.223 9.04051 21.1514 8.08306C21.0747 7.06833 21.6107 6.16101 22.5354 5.73957C22.6275 5.69763 22.7205 5.6608 22.8423 5.60966V5.61068Z" fill="#5D40AF"/>
<path d="M3.93372 9.67165C3.93372 10.1176 3.9419 10.5636 3.93167 11.0096C3.92144 11.4229 3.66162 11.695 3.31178 11.6888C2.96706 11.6827 2.70111 11.3942 2.69804 10.9943C2.69088 10.1023 2.68985 9.20929 2.69804 8.31731C2.70213 7.90712 2.96195 7.64423 3.32508 7.64832C3.67594 7.65139 3.91837 7.89689 3.92962 8.29481C3.94292 8.75307 3.93269 9.21236 3.93269 9.67165C3.93269 9.67165 3.93269 9.67165 3.93372 9.67165Z" fill="#5D40AF"/>
<path d="M33.6217 20.3478C33.6217 20.7815 33.6268 21.2142 33.6207 21.6479C33.6135 22.0857 33.3619 22.3578 32.9865 22.3517C32.6234 22.3455 32.3891 22.0929 32.386 21.6622C32.3779 20.7703 32.3768 19.8783 32.386 18.9853C32.3901 18.573 32.6571 18.3009 33.01 18.3112C33.3547 18.3204 33.6135 18.6078 33.6207 19.0098C33.6289 19.4558 33.6227 19.9018 33.6227 20.3478H33.6217Z" fill="#5D40AF"/>
</g>
<defs>
<clipPath id="clip0_2_71">
<rect width="35.6833" height="30" fill="white" transform="translate(0.316696)"/>
</clipPath>
</defs>
</svg>
